<svg width="38" height="38" viewBox="0 0 38 38" fill="none" xmlns="http://www.w3.org/2000/svg">
<mask id="mask0_77_15" style="mask-type:alpha" maskUnits="userSpaceOnUse" x="0" y="0" width="38" height="38">
<rect width="37.1122" height="37.1122" fill="white"/>
</mask>
<g mask="url(#mask0_77_15)">
<path d="M11.7909 9.89655L16.1207 4.29107C16.43 3.87871 16.7972 3.57588 17.2225 3.38259C17.6477 3.1893 18.0923 3.09265 18.5562 3.09265C19.0201 3.09265 19.4647 3.1893 19.8899 3.38259C20.3152 3.57588 20.6824 3.87871 20.9917 4.29107L25.3214 9.89655L31.8934 12.1001C32.5635 12.3063 33.0918 12.6864 33.4784 13.2405C33.865 13.7946 34.0583 14.4067 34.0583 15.0768C34.0583 15.3861 34.0132 15.6953 33.923 16.0046C33.8328 16.3139 33.6846 16.6103 33.4784 16.8937L29.2259 22.9245L29.3806 29.2645C29.4064 30.1665 29.11 30.9268 28.4914 31.5453C27.8729 32.1639 27.1513 32.4731 26.3266 32.4731C26.275 32.4731 25.9915 32.4345 25.4761 32.3572L18.5562 30.4242L11.6363 32.3572C11.5074 32.4087 11.3657 32.4409 11.2111 32.4538C11.0564 32.4667 10.9147 32.4731 10.7858 32.4731C9.96111 32.4731 9.23948 32.1639 8.62094 31.5453C8.00241 30.9268 7.70603 30.1665 7.7318 29.2645L7.88643 22.8858L3.67265 16.8937C3.46647 16.6103 3.31828 16.3139 3.22808 16.0046C3.13788 15.6953 3.09277 15.3861 3.09277 15.0768C3.09277 14.4325 3.27962 13.8333 3.65332 13.2792C4.02702 12.7251 4.54891 12.332 5.21899 12.1001L11.7909 9.89655ZM13.6852 12.564L6.18546 15.0381L10.9791 21.958L10.8245 29.3418L18.5562 27.2156L26.2879 29.3805L26.1333 21.958L30.9269 15.1155L23.4272 12.564L18.5562 6.18533L13.6852 12.564Z" fill="white"/>
</g>
</svg>
