<svg width="32" height="32" viewBox="0 0 32 32" fill="none" xmlns="http://www.w3.org/2000/svg">
<mask id="mask0_21_93" style="mask-type:alpha" maskUnits="userSpaceOnUse" x="0" y="0" width="32" height="32">
<rect width="32" height="32" fill="#FFFFFF" fill-opacity="0.92"/>
</mask>
<g mask="url(#mask0_21_93)">
<path d="M10.1667 8.53329L13.9 3.69996C14.1667 3.3444 14.4834 3.08329 14.85 2.91663C15.2167 2.74996 15.6 2.66663 16 2.66663C16.4 2.66663 16.7834 2.74996 17.15 2.91663C17.5167 3.08329 17.8334 3.3444 18.1 3.69996L21.8334 8.53329L27.5 10.4333C28.0778 10.6111 28.5334 10.9388 28.8667 11.4166C29.2 11.8944 29.3667 12.4222 29.3667 13C29.3667 13.2666 29.3278 13.5333 29.25 13.8C29.1722 14.0666 29.0445 14.3222 28.8667 14.5666L25.2 19.7666L25.3334 25.2333C25.3556 26.0111 25.1 26.6666 24.5667 27.2C24.0334 27.7333 23.4111 28 22.7 28C22.6556 28 22.4111 27.9666 21.9667 27.9L16 26.2333L10.0334 27.9C9.92224 27.9444 9.80002 27.9722 9.66669 27.9833C9.53335 27.9944 9.41113 28 9.30002 28C8.58891 28 7.96669 27.7333 7.43335 27.2C6.90002 26.6666 6.64446 26.0111 6.66669 25.2333L6.80002 19.7333L3.16669 14.5666C2.98891 14.3222 2.86113 14.0666 2.78335 13.8C2.70558 13.5333 2.66669 13.2666 2.66669 13C2.66669 12.4444 2.8278 11.9277 3.15002 11.45C3.47224 10.9722 3.92224 10.6333 4.50002 10.4333L10.1667 8.53329Z" fill="#FFFFFF" fill-opacity="0.92"/>
</g>
</svg>
