<svg width="32" height="32" viewBox="0 0 32 32" fill="none" xmlns="http://www.w3.org/2000/svg">
<mask id="mask0_12_390" style="mask-type:alpha" maskUnits="userSpaceOnUse" x="0" y="0" width="32" height="32">
<rect width="32" height="32" fill="#D9D9D9"/>
</mask>
<g mask="url(#mask0_12_390)">
<path d="M10.1667 8.53332L13.9 3.69999C14.1667 3.34443 14.4833 3.08332 14.85 2.91666C15.2167 2.74999 15.6 2.66666 16 2.66666C16.4 2.66666 16.7833 2.74999 17.15 2.91666C17.5167 3.08332 17.8333 3.34443 18.1 3.69999L21.8333 8.53332L27.5 10.4333C28.0778 10.6111 28.5333 10.9389 28.8667 11.4167C29.2 11.8944 29.3667 12.4222 29.3667 13C29.3667 13.2667 29.3278 13.5333 29.25 13.8C29.1722 14.0667 29.0444 14.3222 28.8667 14.5667L25.2 19.7667L25.3333 25.2333C25.3555 26.0111 25.1 26.6667 24.5667 27.2C24.0333 27.7333 23.4111 28 22.7 28C22.6555 28 22.4111 27.9667 21.9667 27.9L16 26.2333L10.0333 27.9C9.92221 27.9444 9.79999 27.9722 9.66666 27.9833C9.53332 27.9944 9.4111 28 9.29999 28C8.58888 28 7.96666 27.7333 7.43332 27.2C6.89999 26.6667 6.64443 26.0111 6.66666 25.2333L6.79999 19.7333L3.16666 14.5667C2.98888 14.3222 2.8611 14.0667 2.78332 13.8C2.70555 13.5333 2.66666 13.2667 2.66666 13C2.66666 12.4444 2.82777 11.9278 3.14999 11.45C3.47221 10.9722 3.92221 10.6333 4.49999 10.4333L10.1667 8.53332ZM11.8 10.8333L5.33332 12.9667L9.46666 18.9333L9.33332 25.3L16 23.4667L22.6667 25.3333L22.5333 18.9333L26.6667 13.0333L20.2 10.8333L16 5.33332L11.8 10.8333Z" fill="#22301C"/>
</g>
</svg>
