<svg width="27" height="27" viewBox="0 0 27 27" fill="none" xmlns="http://www.w3.org/2000/svg">
<path d="M0 0H27V27H0V0Z" fill="white" fill-opacity="0.01"/>
<path d="M13.5 3.375V23.625C9.5625 23.625 6.63666 18.472 6.63666 18.472H3.375C2.75368 18.472 2.25 17.9683 2.25 17.347V9.56857C2.25 8.94724 2.75368 8.44358 3.375 8.44358H6.63666C6.63666 8.44358 9.5625 3.375 13.5 3.375Z" stroke="#15AB63" stroke-width="2" stroke-linejoin="round"/>
<path d="M18 8.4375C18.3505 8.75053 18.6683 9.10108 18.9473 9.48308C19.7655 10.6034 20.25 11.9938 20.25 13.5C20.25 14.9932 19.7738 16.3725 18.9685 17.4877C18.6845 17.881 18.3595 18.2415 18 18.5625" stroke="#15AB63" stroke-width="2" stroke-linecap="round" stroke-linejoin="round"/>
<path d="M19.2577 23.167C22.547 21.2036 24.75 17.6091 24.75 13.5C24.75 9.45478 22.6149 5.90822 19.4102 3.92572" stroke="#15AB63" stroke-width="2" stroke-linecap="round"/>
</svg>
